<?xml version="1.0" encoding="UTF-8"?>
<svg xmlns="http://www.w3.org/2000/svg" xmlns:xlink="http://www.w3.org/1999/xlink" width="375" zoomAndPan="magnify" viewBox="0 0 281.25 281.249989" height="375" preserveAspectRatio="xMidYMid meet" version="1.0">
  <defs>
    <clipPath id="c617a25a8e">
      <path d="M 106 1.308594 L 114 1.308594 L 114 6 L 106 6 Z M 106 1.308594 " clip-rule="nonzero"></path>
    </clipPath>
    <clipPath id="039f8df183">
      <path d="M 248 199 L 251.828125 199 L 251.828125 203 L 248 203 Z M 248 199 " clip-rule="nonzero"></path>
    </clipPath>
  </defs>
  <path fill="#d9d9d9" d="M 77.785156 239.1875 C 75.214844 236.542969 70.722656 232.191406 68.871094 231.023438 C 68.773438 230.972656 68.621094 230.929688 68.507812 230.929688 C 68.539062 232.183594 80.222656 243.496094 81.53125 243.539062 C 81.496094 243.085938 79.476562 240.921875 77.785156 239.1875 " fill-opacity="1" fill-rule="nonzero"></path>
  <path fill="#d9d9d9" d="M 92.957031 250.144531 C 90.257812 247.839844 85.363281 244.066406 82.945312 243.132812 C 82.769531 243.082031 82.5 243.011719 82.40625 243.09375 C 81.941406 243.515625 85.007812 246.40625 88.167969 248.84375 C 92.21875 251.960938 95.910156 254.230469 96.574219 254.007812 C 96.792969 253.519531 94.402344 251.378906 92.957031 250.144531 " fill-opacity="1" fill-rule="nonzero"></path>
  <path fill="#d9d9d9" d="M 42.464844 191.179688 C 42.40625 191.121094 42.300781 191.058594 42.214844 191.058594 C 42.195312 192.695312 49.996094 207.617188 50.914062 207.6875 C 50.925781 207.027344 49.367188 203.761719 48.4375 201.871094 C 46.8125 198.574219 43.753906 192.753906 42.464844 191.179688 " fill-opacity="1" fill-rule="nonzero"></path>
  <path fill="#d9d9d9" d="M 52.175781 207.191406 C 52.015625 207.117188 51.8125 207.019531 51.714844 207.125 C 50.699219 208.15625 59.859375 221.695312 62.03125 222.375 C 62.871094 222.636719 61.957031 220.386719 59.808594 216.910156 C 57.800781 213.652344 54.105469 208.488281 52.175781 207.191406 " fill-opacity="1" fill-rule="nonzero"></path>
  <path fill="#d9d9d9" d="M 73.507812 230.328125 C 71.289062 227.367188 67.015625 222.726562 64.449219 221.671875 C 64.234375 221.617188 63.941406 221.542969 63.777344 221.660156 C 62.011719 222.882812 72.335938 234.964844 75.53125 235.414062 C 76.707031 235.578125 75.875 233.488281 73.507812 230.328125 " fill-opacity="1" fill-rule="nonzero"></path>
  <path fill="#d9d9d9" d="M 35.582031 173.777344 C 35.683594 174.097656 35.84375 174.570312 36.039062 175.148438 C 35.882812 174.683594 35.722656 174.210938 35.582031 173.765625 L 35.582031 173.777344 " fill-opacity="1" fill-rule="nonzero"></path>
  <path fill="#d9d9d9" d="M 46.949219 196.691406 C 48.175781 197.386719 47.960938 194.628906 46.449219 190.273438 C 45.144531 186.519531 42.429688 180.601562 40.484375 179.214844 C 40.367188 179.167969 40.203125 179.085938 40.078125 179.109375 C 38.050781 179.5 44.148438 195.109375 46.949219 196.691406 " fill-opacity="1" fill-rule="nonzero"></path>
  <path fill="#d9d9d9" d="M 58.351562 212.011719 C 60.027344 212.566406 59.90625 209.929688 58.070312 205.875 C 56.480469 202.371094 53.039062 196.914062 50.355469 195.753906 C 50.125 195.703125 49.8125 195.628906 49.574219 195.777344 C 47.230469 197.246094 54.527344 210.753906 58.351562 212.011719 " fill-opacity="1" fill-rule="nonzero"></path>
  <path fill="#d9d9d9" d="M 71.746094 225.648438 C 74.1875 226.453125 74.378906 223.882812 72.164062 219.917969 C 70.078125 216.175781 65.953125 211.628906 62.933594 210.816406 C 62.640625 210.78125 62.238281 210.734375 61.933594 210.898438 C 59.046875 212.421875 66.75 224 71.746094 225.648438 " fill-opacity="1" fill-rule="nonzero"></path>
  <path fill="#d9d9d9" d="M 33.613281 161.46875 C 33.550781 161.414062 33.453125 161.34375 33.371094 161.320312 C 32.148438 162.082031 36.953125 179.589844 38.511719 180.050781 C 39.128906 179.667969 37.992188 174.742188 37.628906 173.242188 C 36.742188 169.558594 34.863281 163.109375 33.613281 161.46875 " fill-opacity="1" fill-rule="nonzero"></path>
  <path fill="#d9d9d9" d="M 45.902344 184.367188 C 47.875 185.460938 48.59375 182.308594 47.503906 177.339844 C 46.632812 173.390625 44.222656 167.285156 41.578125 166.085938 C 41.402344 166.050781 41.15625 166 40.976562 166.039062 C 37.578125 166.78125 41.675781 182.03125 45.902344 184.367188 " fill-opacity="1" fill-rule="nonzero"></path>
  <path fill="#d9d9d9" d="M 57.023438 200.066406 C 59.847656 201.5 60.957031 198.402344 59.402344 193.433594 C 58.222656 189.667969 55.019531 183.929688 51.585938 182.957031 C 51.355469 182.933594 51.042969 182.902344 50.816406 182.957031 C 46.792969 183.910156 51.664062 197.339844 57.023438 200.066406 " fill-opacity="1" fill-rule="nonzero"></path>
  <path fill="#d9d9d9" d="M 70.488281 214.226562 C 74.207031 215.9375 75.761719 212.96875 73.753906 207.996094 C 72.335938 204.476562 68.519531 199.210938 64.480469 198.515625 C 64.109375 198.507812 63.605469 198.492188 63.15625 198.707031 C 59.390625 200.492188 64.597656 211.511719 70.488281 214.226562 " fill-opacity="1" fill-rule="nonzero"></path>
  <path fill="#d9d9d9" d="M 37.238281 167.136719 C 38.636719 168.382812 39.273438 165.273438 38.660156 160.207031 C 38.179688 156.246094 36.671875 150.054688 34.816406 148.671875 C 34.695312 148.621094 34.515625 148.550781 34.386719 148.574219 C 31.867188 149.023438 34.242188 164.464844 37.238281 167.136719 " fill-opacity="1" fill-rule="nonzero"></path>
  <path fill="#d9d9d9" d="M 51.632812 163.367188 C 51.199219 159.386719 49.09375 153.339844 45.773438 152.363281 C 45.535156 152.339844 45.210938 152.316406 44.980469 152.371094 C 40.875 153.328125 42.601562 166.824219 47.289062 170.421875 C 50.15625 172.625 52.269531 169.195312 51.632812 163.367188 " fill-opacity="1" fill-rule="nonzero"></path>
  <path fill="#d9d9d9" d="M 63.574219 179.515625 C 62.78125 175.539062 59.855469 169.605469 55.832031 168.875 C 55.542969 168.871094 55.152344 168.867188 54.871094 168.941406 C 50.203125 170.140625 52.664062 182.566406 58.335938 186.433594 C 62.203125 189.074219 64.796875 185.644531 63.574219 179.515625 " fill-opacity="1" fill-rule="nonzero"></path>
  <path fill="#d9d9d9" d="M 77.898438 194.527344 C 76.835938 190.734375 73.285156 185.175781 68.710938 184.707031 C 68.386719 184.71875 67.949219 184.738281 67.636719 184.828125 C 62.515625 186.289062 65.871094 198.070312 72.359375 201.414062 C 76.765625 203.679688 79.507812 200.269531 77.898438 194.527344 " fill-opacity="1" fill-rule="nonzero"></path>
  <path fill="#d9d9d9" d="M 39.183594 153.671875 C 41.164062 155.378906 42.832031 152.101562 42.753906 146.65625 C 42.695312 142.695312 41.496094 136.59375 39.011719 135.429688 C 38.828125 135.390625 38.578125 135.347656 38.398438 135.386719 C 34.851562 136.121094 35.46875 150.476562 39.183594 153.671875 " fill-opacity="1" fill-rule="nonzero"></path>
  <path fill="#d9d9d9" d="M 58.488281 148.785156 C 58.410156 144.789062 56.578125 138.835938 52.757812 138.117188 C 52.613281 138.113281 52.417969 138.097656 52.277344 138.109375 C 47.199219 138.472656 46.628906 150.652344 51.464844 155.484375 C 54.945312 158.964844 58.621094 155.460938 58.488281 148.785156 " fill-opacity="1" fill-rule="nonzero"></path>
  <path fill="#d9d9d9" d="M 70.160156 164.460938 C 69.730469 160.445312 67.121094 154.574219 62.667969 154.09375 C 62.5 154.101562 62.277344 154.097656 62.113281 154.117188 C 56.371094 154.800781 56.832031 167.078125 62.769531 171.628906 C 67.003906 174.875 70.871094 171.121094 70.160156 164.460938 " fill-opacity="1" fill-rule="nonzero"></path>
  <path fill="#d9d9d9" d="M 84.296875 179.546875 C 83.554688 175.539062 80.265625 169.789062 75.273438 169.546875 C 75.085938 169.566406 74.839844 169.574219 74.65625 169.601562 C 68.757812 170.535156 69.617188 181.929688 75.933594 186.539062 C 81.042969 190.269531 85.578125 186.476562 84.296875 179.546875 " fill-opacity="1" fill-rule="nonzero"></path>
  <path fill="#d9d9d9" d="M 43.585938 139.328125 C 46.109375 142.242188 49.160156 138.871094 49.628906 132.648438 C 49.929688 128.707031 48.972656 122.734375 45.90625 121.804688 C 45.789062 121.792969 45.636719 121.765625 45.515625 121.769531 C 41.257812 121.839844 39.816406 134.96875 43.585938 139.328125 " fill-opacity="1" fill-rule="nonzero"></path>
  <path fill="#d9d9d9" d="M 58.40625 140.652344 C 61.992188 144.710938 66.824219 141.046875 67.171875 134.003906 C 67.363281 130.019531 65.777344 124.199219 61.640625 123.730469 C 55.433594 123.996094 54.140625 135.820312 58.40625 140.652344 " fill-opacity="1" fill-rule="nonzero"></path>
  <path fill="#d9d9d9" d="M 78.589844 149.136719 C 78.4375 145.113281 76.082031 139.332031 71.3125 139.085938 C 64.339844 139.691406 64.050781 151.667969 69.347656 156.300781 C 73.757812 160.160156 78.851562 156.210938 78.589844 149.136719 " fill-opacity="1" fill-rule="nonzero"></path>
  <path fill="#d9d9d9" d="M 82.15625 170.886719 C 87.433594 175.429688 93.304688 171.390625 92.453125 163.796875 C 91.996094 159.753906 88.96875 154.054688 83.65625 154.035156 C 76.425781 154.929688 76.472656 165.992188 82.15625 170.886719 " fill-opacity="1" fill-rule="nonzero"></path>
  <path fill="#d9d9d9" d="M 58.535156 118.523438 C 59.105469 114.621094 58.355469 108.816406 54.90625 108.136719 C 49.414062 108.066406 47.164062 120.734375 50.703125 125.132812 C 53.476562 128.582031 57.574219 125.121094 58.535156 118.523438 " fill-opacity="1" fill-rule="nonzero"></path>
  <path fill="#d9d9d9" d="M 103.316406 238.179688 C 107.648438 239.273438 109.363281 236.546875 106.992188 232.335938 C 105.3125 229.355469 100.8125 225.085938 96.058594 224.921875 C 95.414062 224.96875 94.746094 225.019531 94.09375 225.472656 C 90.417969 228.03125 96.539062 236.464844 103.316406 238.179688 " fill-opacity="1" fill-rule="nonzero"></path>
  <path fill="#d9d9d9" d="M 111.222656 220.019531 C 109.878906 216.730469 105.605469 212.113281 100.3125 212.148438 C 99.824219 212.207031 99.152344 212.28125 98.523438 212.582031 C 93.691406 214.863281 97.496094 223.644531 104.503906 226.394531 C 109.90625 228.515625 113.359375 225.238281 111.222656 220.019531 " fill-opacity="1" fill-rule="nonzero"></path>
  <path fill="#d9d9d9" d="M 117.617188 206.089844 C 116.558594 202.507812 112.480469 197.570312 106.738281 197.808594 C 106.527344 197.839844 106.242188 197.871094 106.035156 197.914062 C 99.710938 199.25 100.875 208.632812 107.863281 212.675781 C 114.0625 216.257812 119.53125 212.566406 117.617188 206.089844 " fill-opacity="1" fill-rule="nonzero"></path>
  <path fill="#d9d9d9" d="M 114.957031 181.972656 C 114.730469 182.015625 114.429688 182.054688 114.207031 182.109375 C 107.375 183.757812 107.761719 193.933594 114.816406 198.121094 C 121.019531 201.804688 127.277344 197.53125 125.789062 190.628906 C 124.960938 186.773438 121.050781 181.539062 114.957031 181.972656 " fill-opacity="1" fill-rule="nonzero"></path>
  <path fill="#d9d9d9" d="M 104.359375 248.105469 C 107.324219 248.492188 107.691406 246.25 105.191406 243 C 103.148438 240.339844 98.402344 236.4375 94.261719 236.074219 C 93.707031 236.089844 93.132812 236.105469 92.660156 236.46875 C 89.730469 238.734375 98.367188 247.324219 104.359375 248.105469 " fill-opacity="1" fill-rule="nonzero"></path>
  <path fill="#d9d9d9" d="M 107.601562 256.242188 C 109.253906 256.203125 108.613281 254.503906 106.011719 252.007812 C 103.734375 249.832031 98.765625 246.171875 95.105469 245.613281 C 94.648438 245.59375 94.179688 245.574219 93.886719 245.851562 C 91.960938 247.703125 103.367188 256.347656 107.601562 256.242188 " fill-opacity="1" fill-rule="nonzero"></path>
  <path fill="#d9d9d9" d="M 87.59375 214.878906 C 93.179688 217.621094 96.816406 214.003906 94.675781 207.839844 C 93.332031 203.984375 88.996094 198.449219 83.558594 198.222656 C 83.171875 198.257812 82.652344 198.304688 82.285156 198.414062 C 76.550781 200.132812 80.125 211.210938 87.59375 214.878906 " fill-opacity="1" fill-rule="nonzero"></path>
  <path fill="#d9d9d9" d="M 86.589844 227.425781 C 90.984375 228.925781 92.804688 225.777344 90.410156 220.828125 C 88.695312 217.289062 84.097656 212.097656 79.238281 211.644531 C 78.792969 211.65625 78.1875 211.675781 77.648438 211.925781 C 73.03125 214.078125 79.296875 224.945312 86.589844 227.425781 " fill-opacity="1" fill-rule="nonzero"></path>
  <path fill="#d9d9d9" d="M 37.597656 129.8125 C 37.957031 125.578125 37.632812 118.980469 35.796875 117.566406 C 35.65625 117.511719 35.457031 117.449219 35.3125 117.472656 C 32.203125 118.011719 31.316406 134.535156 34.246094 137.339844 C 35.632812 138.664062 37.136719 135.289062 37.597656 129.8125 " fill-opacity="1" fill-rule="nonzero"></path>
  <path fill="#d9d9d9" d="M 31.425781 130.234375 C 31.347656 130.171875 31.230469 130.070312 31.128906 130.082031 C 29.261719 130.289062 30.105469 148.265625 32.082031 150.332031 C 32.917969 151.207031 33.46875 148.003906 33.363281 142.882812 C 33.277344 138.617188 32.621094 131.871094 31.425781 130.234375 " fill-opacity="1" fill-rule="nonzero"></path>
  <path fill="#d9d9d9" d="M 100.46875 193.28125 C 99.527344 189.449219 95.753906 184.0625 90.308594 184.066406 C 89.914062 184.113281 89.382812 184.1875 89.007812 184.308594 C 83.261719 186.207031 84.992188 196.378906 91.730469 200.320312 C 97.328125 203.589844 102.066406 199.773438 100.46875 193.28125 " fill-opacity="1" fill-rule="nonzero"></path>
  <path fill="#d9d9d9" d="M 97.980469 184.726562 C 103.847656 188.902344 109.949219 184.652344 108.679688 177.277344 C 107.988281 173.242188 104.417969 167.660156 98.648438 167.875 C 98.433594 167.910156 98.144531 167.941406 97.933594 167.988281 C 91.390625 169.417969 91.417969 180.058594 97.980469 184.726562 " fill-opacity="1" fill-rule="nonzero"></path>
  <path fill="#d9d9d9" d="M 87.429688 237.597656 C 90.242188 238.191406 90.558594 235.792969 88.140625 232.144531 C 86.1875 229.183594 81.691406 224.738281 77.828125 224.117188 C 77.316406 224.097656 76.785156 224.082031 76.347656 224.441406 C 73.710938 226.617188 81.996094 236.453125 87.429688 237.597656 " fill-opacity="1" fill-rule="nonzero"></path>
  <path fill="#d9d9d9" d="M 90.835938 246.601562 C 92.304688 246.660156 91.585938 244.734375 89.089844 241.914062 C 86.738281 239.257812 82.011719 235.160156 78.875 234.359375 C 78.460938 234.308594 78.070312 234.257812 77.84375 234.542969 C 76.355469 236.421875 87.15625 246.453125 90.835938 246.601562 " fill-opacity="1" fill-rule="nonzero"></path>
  <path fill="#d9d9d9" d="M 31.019531 113.261719 C 31.003906 113.226562 30.980469 113.171875 30.964844 113.136719 C 30.925781 113.132812 30.875 113.128906 30.835938 113.128906 C 29.863281 114.769531 28.921875 129.761719 29.679688 131.566406 C 29.71875 131.570312 29.769531 131.570312 29.808594 131.570312 C 30.234375 130.789062 30.59375 127.054688 30.769531 124.898438 C 31.0625 121.273438 31.394531 114.910156 31.019531 113.261719 " fill-opacity="1" fill-rule="nonzero"></path>
  <path fill="#d9d9d9" d="M 34.964844 112.480469 C 35.683594 108.667969 36.289062 102.671875 35.371094 101.277344 C 35.296875 101.222656 35.179688 101.144531 35.085938 101.15625 C 33.074219 101.378906 30.496094 117.40625 32.183594 119.210938 C 32.902344 119.972656 34.097656 117.082031 34.964844 112.480469 " fill-opacity="1" fill-rule="nonzero"></path>
  <path fill="#d9d9d9" d="M 41.773438 99.808594 C 42.84375 96.066406 43.714844 90.265625 42.292969 89.085938 C 42.234375 89.066406 42.152344 89.023438 42.089844 89.011719 C 39.320312 88.554688 35.214844 102.921875 37.152344 106.285156 C 38.15625 108.023438 40.273438 105.058594 41.773438 99.808594 " fill-opacity="1" fill-rule="nonzero"></path>
  <path fill="#d9d9d9" d="M 44.640625 93.316406 C 45.832031 95.492188 48.78125 92.460938 50.828125 86.957031 C 52.183594 83.304688 53.265625 77.738281 51.425781 76.785156 C 47.984375 76.175781 42.53125 89.460938 44.640625 93.316406 " fill-opacity="1" fill-rule="nonzero"></path>
  <path fill="#d9d9d9" d="M 44.148438 116.007812 C 44.835938 112.148438 44.804688 106.230469 42.585938 105.148438 C 42.496094 105.132812 42.378906 105.097656 42.292969 105.09375 C 38.703125 104.902344 36.066406 118.667969 38.933594 122.628906 C 40.597656 124.921875 43.128906 121.707031 44.148438 116.007812 " fill-opacity="1" fill-rule="nonzero"></path>
  <path fill="#d9d9d9" d="M 46.332031 108.855469 C 48.238281 111.65625 51.753906 108.367188 53.296875 102.332031 C 54.265625 98.542969 54.429688 92.824219 51.75 91.980469 C 46.972656 91.597656 43.632812 104.886719 46.332031 108.855469 " fill-opacity="1" fill-rule="nonzero"></path>
  <path fill="#d9d9d9" d="M 77.910156 117.976562 C 78.3125 114.050781 76.921875 108.414062 72.578125 108.179688 C 66.476562 108.734375 64.105469 119.625 67.742188 124.476562 C 71.261719 129.167969 77.152344 125.402344 77.910156 117.976562 " fill-opacity="1" fill-rule="nonzero"></path>
  <path fill="#d9d9d9" d="M 89.074219 132.453125 C 89.132812 128.460938 86.976562 122.824219 82 122.800781 C 75.015625 123.683594 73.574219 134.660156 78.3125 139.515625 C 82.730469 144.039062 88.964844 139.949219 89.074219 132.453125 " fill-opacity="1" fill-rule="nonzero"></path>
  <path fill="#d9d9d9" d="M 91.421875 154.140625 C 96.601562 158.464844 103.125 154.078125 102.679688 146.570312 C 102.4375 142.535156 99.613281 136.9375 94.082031 137.136719 C 86.472656 138.328125 85.800781 149.457031 91.421875 154.140625 " fill-opacity="1" fill-rule="nonzero"></path>
  <path fill="#d9d9d9" d="M 108.476562 151.082031 C 100.894531 152.480469 100.367188 162.882812 105.960938 167.699219 C 111.753906 172.6875 119.261719 168.160156 118.320312 160.246094 C 117.835938 156.191406 114.460938 150.664062 108.476562 151.082031 " fill-opacity="1" fill-rule="nonzero"></path>
  <path fill="#d9d9d9" d="M 66.089844 93.429688 C 60.472656 93.703125 57.285156 105.238281 60.371094 109.742188 C 63.089844 113.707031 68.136719 110.140625 69.527344 103.273438 C 70.300781 99.445312 69.75 93.859375 66.089844 93.429688 " fill-opacity="1" fill-rule="nonzero"></path>
  <path fill="#d9d9d9" d="M 55.839844 94.832031 C 57.804688 98.09375 62.152344 94.773438 64.140625 88.480469 C 65.3125 84.785156 65.640625 79.308594 62.707031 78.707031 C 57.652344 78.691406 53.351562 90.699219 55.839844 94.832031 " fill-opacity="1" fill-rule="nonzero"></path>
  <path fill="#d9d9d9" d="M 70.496094 170.914062 L 70.433594 171.015625 L 70.449219 171.027344 Z M 70.496094 170.914062 " fill-opacity="1" fill-rule="nonzero"></path>
  <path fill="#d9d9d9" d="M 74.226562 186.140625 L 74.339844 186.242188 L 74.242188 186.140625 C 74.238281 186.140625 74.230469 186.140625 74.226562 186.140625 " fill-opacity="1" fill-rule="nonzero"></path>
  <path fill="#d9d9d9" d="M 121.480469 235.960938 C 127.054688 238.148438 130.914062 235.140625 128.722656 230.316406 C 127.425781 227.46875 123.285156 223.5625 118.132812 223.792969 C 117.59375 223.875 116.925781 223.976562 116.289062 224.296875 C 111.984375 226.476562 115.089844 233.453125 121.480469 235.960938 " fill-opacity="1" fill-rule="nonzero"></path>
  <path fill="#d9d9d9" d="M 120.648438 247.203125 C 124.886719 248.023438 126.628906 245.480469 124.300781 241.871094 C 122.796875 239.539062 118.625 235.863281 113.824219 235.917969 C 113.507812 235.9375 112.539062 236.003906 111.789062 236.546875 C 108.40625 238.984375 114.203125 245.957031 120.648438 247.203125 " fill-opacity="1" fill-rule="nonzero"></path>
  <path fill="#d9d9d9" d="M 99.6875 116.273438 C 99.894531 112.53125 98.015625 107.320312 93.191406 107.460938 C 87.3125 108.078125 84.425781 117.566406 88.582031 122.609375 C 92.542969 127.414062 99.285156 123.5625 99.6875 116.273438 " fill-opacity="1" fill-rule="nonzero"></path>
  <path fill="#d9d9d9" d="M 83.953125 93.628906 C 78.144531 94.390625 75.445312 104.238281 78.621094 108.617188 C 81.753906 112.929688 87.621094 109.542969 88.75 102.773438 C 89.371094 99.035156 88.296875 93.726562 83.953125 93.628906 " fill-opacity="1" fill-rule="nonzero"></path>
  <path fill="#d9d9d9" d="M 33.5 101.136719 C 34.160156 100.78125 35.320312 97.164062 35.957031 95.039062 C 36.207031 94.199219 38.398438 86.777344 38.070312 84.96875 C 38.042969 84.917969 37.988281 84.84375 37.933594 84.824219 C 37.902344 84.835938 37.859375 84.847656 37.828125 84.867188 C 36.328125 85.878906 32.363281 100.777344 33.5 101.136719 " fill-opacity="1" fill-rule="nonzero"></path>
  <path fill="#d9d9d9" d="M 134.980469 216.871094 C 133.945312 213.953125 130.351562 209.773438 124.675781 210.210938 C 124.25 210.289062 123.675781 210.394531 123.265625 210.542969 C 117.96875 212.429688 119.515625 220.089844 125.8125 223.152344 C 131.242188 225.789062 137.105469 222.882812 134.980469 216.871094 " fill-opacity="1" fill-rule="nonzero"></path>
  <path fill="#d9d9d9" d="M 112.070312 262.269531 C 112.855469 262.140625 111.09375 260.640625 109.179688 259.277344 C 107.007812 257.734375 102.148438 254.621094 99.277344 253.917969 C 98.933594 253.871094 98.636719 253.828125 98.5625 254.019531 C 98.023438 255.378906 109.890625 262.625 112.070312 262.269531 " fill-opacity="1" fill-rule="nonzero"></path>
  <path fill="#d9d9d9" d="M 121.289062 256.210938 C 124.269531 256.417969 124.675781 254.582031 122.25 251.839844 C 120.660156 250.046875 116.472656 246.613281 111.988281 246.480469 C 111.390625 246.519531 110.824219 246.558594 110.351562 246.914062 C 107.613281 248.957031 115.691406 255.820312 121.289062 256.210938 " fill-opacity="1" fill-rule="nonzero"></path>
  <path fill="#d9d9d9" d="M 71.585938 94.503906 C 73.761719 97.707031 78.84375 95.253906 80.523438 88.800781 C 81.140625 86.433594 81.816406 80.230469 77.621094 79.929688 C 72.320312 80.429688 68.917969 90.570312 71.585938 94.503906 " fill-opacity="1" fill-rule="nonzero"></path>
  <path fill="#d9d9d9" d="M 42.761719 83.304688 C 43.878906 80.558594 45.796875 75.019531 45.054688 73.71875 C 45.015625 73.691406 44.972656 73.648438 44.929688 73.632812 C 43.21875 73.046875 37.800781 86.617188 38.824219 88.917969 C 39.324219 90.042969 40.980469 87.683594 42.761719 83.304688 " fill-opacity="1" fill-rule="nonzero"></path>
  <path fill="#d9d9d9" d="M 105.113281 121.304688 C 97.945312 122.625 97.289062 132.253906 101.265625 136.398438 C 105.53125 140.84375 113.070312 137.714844 112.878906 129.816406 C 112.753906 124.628906 109.269531 120.8125 105.113281 121.304688 " fill-opacity="1" fill-rule="nonzero"></path>
  <path fill="#d9d9d9" d="M 134.695312 173.394531 C 134.078125 169.859375 130.957031 164.820312 124.882812 165.421875 C 117.691406 166.558594 117.574219 176.503906 123.144531 180.644531 C 128.472656 184.601562 136.03125 181.066406 134.695312 173.394531 " fill-opacity="1" fill-rule="nonzero"></path>
  <path fill="#d9d9d9" d="M 132.230469 208.488281 C 138.101562 212.164062 144.597656 208.359375 143.085938 202.128906 C 142.027344 197.75 137.304688 194.472656 132.984375 195.109375 C 132.761719 195.15625 132.464844 195.203125 132.25 195.265625 C 126.292969 196.851562 126.28125 204.761719 132.230469 208.488281 " fill-opacity="1" fill-rule="nonzero"></path>
  <path fill="#d9d9d9" d="M 62.164062 65.027344 C 58.417969 64.789062 53.308594 75.9375 54.730469 79.203125 C 55.757812 81.570312 59.144531 78.933594 61.441406 73.980469 C 62.847656 70.945312 64.285156 65.832031 62.164062 65.027344 " fill-opacity="1" fill-rule="nonzero"></path>
  <path fill="#d9d9d9" d="M 124.144531 263.4375 C 125.605469 263.3125 125.109375 261.957031 122.945312 260.140625 C 120 257.667969 115.25 255.414062 112.785156 255.308594 C 112.332031 255.320312 111.90625 255.328125 111.628906 255.589844 C 109.777344 257.332031 120.070312 263.785156 124.144531 263.4375 " fill-opacity="1" fill-rule="nonzero"></path>
  <path fill="#d9d9d9" d="M 74.34375 66.316406 C 70.140625 66.589844 65.414062 75.78125 67.320312 79.976562 C 68.839844 83.320312 73.433594 80.210938 75.511719 74.433594 C 76.640625 71.289062 77.023438 66.695312 74.34375 66.316406 " fill-opacity="1" fill-rule="nonzero"></path>
  <path fill="#d9d9d9" d="M 46.695312 76.707031 C 47.25 78.175781 49.6875 75.570312 51.917969 71.125 C 53.40625 68.15625 55.160156 63.347656 54.191406 62.453125 C 54.1875 62.449219 54.179688 62.445312 54.175781 62.441406 C 51.925781 61.570312 45.5625 73.703125 46.695312 76.707031 " fill-opacity="1" fill-rule="nonzero"></path>
  <path fill="#d9d9d9" d="M 119.335938 134.882812 C 112.894531 135.894531 111.050781 145.304688 116.394531 149.910156 C 121.628906 154.425781 128.734375 150.15625 128.085938 142.878906 C 127.765625 139.246094 124.835938 134.359375 119.335938 134.882812 " fill-opacity="1" fill-rule="nonzero"></path>
  <path fill="#d9d9d9" d="M 146.082031 239.679688 C 144.734375 236.429688 139.953125 233.777344 136.246094 234.226562 C 135.90625 234.285156 135.453125 234.371094 135.128906 234.488281 C 131.015625 235.953125 132.046875 241.492188 138.339844 244.164062 C 143.960938 246.546875 147.695312 243.570312 146.082031 239.679688 " fill-opacity="1" fill-rule="nonzero"></path>
  <path fill="#d9d9d9" d="M 141.558594 250.351562 C 140.15625 248.210938 135.996094 245.347656 131.820312 245.542969 C 131.070312 245.617188 130.453125 245.828125 129.992188 246.164062 C 127.046875 248.300781 131.558594 253.511719 137.417969 254.742188 C 141.921875 255.683594 143.363281 253.109375 141.558594 250.351562 " fill-opacity="1" fill-rule="nonzero"></path>
  <path fill="#d9d9d9" d="M 104.675781 92.242188 C 99.820312 92.878906 96.308594 101.125 100.167969 105.855469 C 103.726562 110.222656 109.941406 106.796875 110.554688 100.125 C 110.875 96.664062 109.007812 91.996094 104.675781 92.242188 " fill-opacity="1" fill-rule="nonzero"></path>
  <path fill="#d9d9d9" d="M 99.976562 87.03125 C 100.734375 82.691406 98.664062 78.972656 95.632812 79.222656 C 90.554688 80.074219 87.355469 88.539062 90.527344 92.742188 C 93.554688 96.753906 98.992188 92.65625 99.976562 87.03125 " fill-opacity="1" fill-rule="nonzero"></path>
  <path fill="#d9d9d9" d="M 46.753906 67.566406 C 47.382812 66.398438 50.515625 60.511719 50.402344 59.042969 C 50.386719 59.015625 50.375 58.972656 50.347656 58.957031 C 49.367188 58.230469 42.777344 70.726562 43.300781 72.328125 C 43.503906 72.957031 44.828125 71.132812 46.753906 67.566406 " fill-opacity="1" fill-rule="nonzero"></path>
  <path fill="#d9d9d9" d="M 83.515625 79.171875 C 85.429688 82.503906 90.5625 79.96875 92.148438 73.660156 C 92.871094 70.800781 92.757812 66.515625 89.503906 66.457031 C 84.785156 67.089844 81.4375 75.554688 83.515625 79.171875 " fill-opacity="1" fill-rule="nonzero"></path>
  <path fill="#d9d9d9" d="M 116.410156 105.339844 C 110.730469 106.230469 108.449219 115.058594 112.820312 119.230469 C 117.0625 123.28125 123.648438 119.257812 123.496094 112.707031 C 123.425781 109.605469 121.4375 104.859375 116.410156 105.339844 " fill-opacity="1" fill-rule="nonzero"></path>
  <path fill="#d9d9d9" d="M 152.285156 226.679688 C 150.933594 223.1875 146.722656 220.808594 142.894531 221.375 C 142.519531 221.449219 142.015625 221.554688 141.652344 221.6875 C 136.855469 223.40625 137.910156 229.648438 143.445312 232.285156 C 149 234.929688 154.203125 231.628906 152.285156 226.679688 " fill-opacity="1" fill-rule="nonzero"></path>
  <path fill="#d9d9d9" d="M 139.351562 259.378906 C 136.988281 256.945312 132.761719 255.089844 129.921875 255.242188 C 129.453125 255.292969 128.660156 255.378906 128.214844 255.847656 C 126.324219 257.839844 133.363281 262.828125 138.261719 262.964844 C 140.980469 263.039062 141.4375 261.53125 139.351562 259.378906 " fill-opacity="1" fill-rule="nonzero"></path>
  <path fill="#d9d9d9" d="M 74.046875 53.296875 C 70.929688 53.007812 65.128906 62.28125 66.289062 65.695312 C 67.101562 68.089844 70.695312 66.140625 73.402344 60.789062 C 74.601562 58.410156 76.28125 53.785156 74.046875 53.296875 " fill-opacity="1" fill-rule="nonzero"></path>
  <path fill="#d9d9d9" d="M 128.648438 268.902344 C 129.335938 268.765625 128.296875 267.84375 125.867188 266.449219 C 125.269531 266.105469 119.921875 263.074219 116.542969 262.59375 C 116.191406 262.574219 115.855469 262.554688 115.738281 262.722656 C 114.972656 263.871094 126.429688 269.355469 128.648438 268.902344 " fill-opacity="1" fill-rule="nonzero"></path>
  <path fill="#d9d9d9" d="M 160.511719 212.730469 C 159.839844 210.003906 156.820312 206.207031 151.253906 206.941406 C 151.25 206.941406 151.25 206.941406 151.25 206.941406 C 151.25 206.941406 151.25 206.941406 151.246094 206.941406 C 151.246094 206.941406 151.246094 206.941406 151.242188 206.941406 C 151.242188 206.941406 151.238281 206.945312 151.238281 206.945312 C 151.238281 206.945312 151.234375 206.945312 151.234375 206.945312 C 150.382812 207.140625 148.609375 207.546875 147.410156 209.171875 C 144.542969 213.050781 148.421875 220.476562 155.914062 219.484375 C 155.914062 219.484375 155.914062 219.484375 155.917969 219.484375 C 155.917969 219.484375 155.917969 219.484375 155.921875 219.484375 C 155.921875 219.484375 155.925781 219.484375 155.925781 219.484375 C 155.925781 219.484375 155.925781 219.484375 155.925781 219.480469 C 155.925781 219.480469 155.929688 219.480469 155.929688 219.480469 C 161.675781 218.160156 160.648438 213.28125 160.511719 212.730469 " fill-opacity="1" fill-rule="nonzero"></path>
  <path fill="#d9d9d9" d="M 152.269531 185.910156 C 151.722656 182.777344 148.625 178.085938 142.640625 178.8125 C 135.667969 180.445312 135.703125 188.976562 141.144531 192.554688 C 146.722656 196.214844 153.375 192.242188 152.269531 185.910156 " fill-opacity="1" fill-rule="nonzero"></path>
  <path fill="#d9d9d9" d="M 135.527344 148.335938 C 129.085938 149.523438 127.730469 158.777344 133.390625 162.894531 C 138.8125 166.839844 145.632812 162.394531 144.617188 155.578125 C 144.023438 151.59375 140.632812 147.699219 135.527344 148.335938 " fill-opacity="1" fill-rule="nonzero"></path>
  <path fill="#d9d9d9" d="M 39.875 78.386719 C 40.816406 76.132812 43.035156 70.742188 43.3125 69.402344 C 43.316406 69.367188 43.316406 69.320312 43.316406 69.289062 C 43.292969 69.289062 43.261719 69.289062 43.242188 69.289062 C 42.3125 70.433594 37.113281 82.738281 37.546875 83.496094 C 37.683594 83.304688 38.007812 82.855469 39.875 78.386719 " fill-opacity="1" fill-rule="nonzero"></path>
  <path fill="#d9d9d9" d="M 115.101562 264.894531 C 108.96875 261.710938 107.21875 260.945312 106.3125 260.613281 C 106.308594 260.613281 106.308594 260.613281 106.308594 260.613281 C 106.308594 260.613281 106.304688 260.613281 106.304688 260.613281 C 106.300781 260.613281 106.300781 260.613281 106.300781 260.613281 C 106.214844 260.585938 106.097656 260.554688 106.007812 260.539062 C 106 260.558594 105.992188 260.589844 105.988281 260.609375 C 107.265625 261.816406 117.984375 267 119.253906 267.191406 C 119.203125 267.085938 119.167969 267.003906 115.101562 264.894531 " fill-opacity="1" fill-rule="nonzero"></path>
  <path fill="#d9d9d9" d="M 56.730469 64.128906 C 57.179688 65.722656 59.679688 64.152344 62.546875 59.347656 C 62.710938 59.070312 66.566406 52.5625 64.902344 51.539062 C 62.039062 51.085938 56.003906 61.570312 56.730469 64.128906 " fill-opacity="1" fill-rule="nonzero"></path>
  <path fill="#d9d9d9" d="M 140.472656 269.25 C 140.472656 269.25 140.476562 269.25 140.476562 269.25 C 140.480469 269.25 140.480469 269.25 140.480469 269.25 C 140.480469 269.25 140.484375 269.25 140.484375 269.25 C 140.582031 269.242188 140.710938 269.242188 140.808594 269.230469 C 142.179688 269.070312 141.808594 268.070312 139.859375 266.675781 C 137.097656 264.703125 132.957031 263.121094 130.621094 263.148438 C 130.203125 263.175781 129.773438 263.203125 129.503906 263.429688 C 128.015625 264.660156 135.578125 269.15625 140.472656 269.25 " fill-opacity="1" fill-rule="nonzero"></path>
  <path fill="#d9d9d9" d="M 86.445312 53.867188 C 85.976562 53.914062 85.269531 53.988281 84.074219 54.960938 C 79.789062 58.4375 77.382812 66.699219 81.429688 66.992188 C 81.429688 66.992188 81.433594 66.992188 81.433594 66.992188 C 81.433594 66.992188 81.4375 66.992188 81.4375 66.992188 C 84.785156 66.648438 86.972656 61.6875 87.210938 61.121094 C 88.691406 57.617188 88.734375 53.867188 86.445312 53.867188 " fill-opacity="1" fill-rule="nonzero"></path>
  <path fill="#d9d9d9" d="M 59.550781 48.691406 C 58.484375 48.441406 50.476562 59.050781 51.550781 61.226562 C 51.550781 61.226562 51.550781 61.226562 51.550781 61.230469 C 51.550781 61.230469 51.550781 61.230469 51.554688 61.230469 C 51.550781 61.230469 51.554688 61.230469 51.554688 61.230469 C 52.480469 61.769531 55.714844 56.859375 56.082031 56.296875 C 57.234375 54.523438 60.128906 49.714844 59.652344 48.75 C 59.621094 48.730469 59.585938 48.699219 59.550781 48.691406 " fill-opacity="1" fill-rule="nonzero"></path>
  <path fill="#d9d9d9" d="M 130.523438 118.296875 C 123.613281 119.917969 123.480469 128.566406 127.570312 132.023438 C 131.820312 135.621094 138.929688 132.375 138.457031 125.484375 C 138.136719 120.816406 134.578125 117.59375 130.523438 118.296875 " fill-opacity="1" fill-rule="nonzero"></path>
  <path fill="#d9d9d9" d="M 146.574219 131.019531 C 140.839844 132.507812 139.183594 139.871094 143.667969 143.933594 C 148.832031 148.613281 155.507812 143.957031 154.980469 137.863281 C 154.691406 134.542969 151.609375 130.316406 146.574219 131.019531 " fill-opacity="1" fill-rule="nonzero"></path>
  <path fill="#d9d9d9" d="M 162.234375 168.238281 C 161.648438 163.886719 157.21875 160.53125 153.121094 161.335938 C 147.230469 162.890625 145.824219 170.566406 150.695312 174.582031 C 156.441406 179.320312 163.082031 174.539062 162.234375 168.238281 " fill-opacity="1" fill-rule="nonzero"></path>
  <path fill="#d9d9d9" d="M 169.898438 196.871094 C 169.1875 193.101562 164.835938 190.265625 160.945312 191.039062 C 155.164062 192.550781 154.054688 199.386719 159.027344 202.835938 C 164.714844 206.78125 170.933594 202.355469 169.898438 196.871094 " fill-opacity="1" fill-rule="nonzero"></path>
  <path fill="#d9d9d9" d="M 68.441406 51.878906 C 68.726562 53.917969 72.035156 51.25 74.542969 47.628906 C 76.34375 45.035156 78.175781 41.175781 76.933594 40.675781 C 74.292969 40.585938 68.023438 48.855469 68.441406 51.878906 " fill-opacity="1" fill-rule="nonzero"></path>
  <path fill="#d9d9d9" d="M 162.652344 247.480469 C 161.585938 244.855469 157.359375 242.753906 154.117188 243.230469 C 153.816406 243.292969 153.410156 243.378906 153.117188 243.484375 C 149.679688 244.738281 150.144531 249 155.121094 251.167969 C 160.207031 253.382812 164.011719 250.824219 162.652344 247.480469 " fill-opacity="1" fill-rule="nonzero"></path>
  <path fill="#d9d9d9" d="M 123.007812 268.148438 C 122.917969 268.136719 122.796875 268.121094 122.703125 268.121094 C 122.691406 268.140625 122.679688 268.175781 122.667969 268.199219 C 123.757812 269.269531 133.214844 272.574219 135.367188 272.90625 C 135.386719 272.886719 135.414062 272.859375 135.4375 272.84375 C 135.078125 272.613281 133.820312 272.070312 131.699219 271.230469 C 131.03125 270.964844 125.128906 268.628906 123.007812 268.148438 " fill-opacity="1" fill-rule="nonzero"></path>
  <path fill="#d9d9d9" d="M 78.96875 52.714844 C 79.683594 54.933594 83.167969 52.621094 85.628906 48.300781 C 86.964844 45.949219 88.378906 42.097656 86.464844 41.769531 C 83.347656 41.992188 78.023438 49.765625 78.96875 52.714844 " fill-opacity="1" fill-rule="nonzero"></path>
  <path fill="#d9d9d9" d="M 145.230469 273.75 C 145.757812 273.445312 143.507812 272.363281 142.808594 272.039062 C 140.101562 270.789062 136 269.386719 134.082031 269.304688 C 133.777344 269.308594 133.464844 269.3125 133.371094 269.472656 C 132.691406 270.589844 143.777344 274.589844 145.230469 273.75 " fill-opacity="1" fill-rule="nonzero"></path>
  <path fill="#d9d9d9" d="M 115.976562 77.308594 C 111.183594 78.378906 108.8125 85.726562 112.074219 89.40625 C 115.25 92.984375 120.804688 89.664062 121.222656 83.941406 C 121.503906 80.035156 119.003906 76.875 115.976562 77.308594 " fill-opacity="1" fill-rule="nonzero"></path>
  <path fill="#d9d9d9" d="M 107.125 65.203125 C 102.847656 66.058594 99.972656 73.054688 102.386719 76.726562 C 104.769531 80.34375 109.964844 77.351562 110.933594 71.800781 C 111.59375 68.042969 109.777344 64.898438 107.125 65.203125 " fill-opacity="1" fill-rule="nonzero"></path>
  <path fill="#d9d9d9" d="M 153.71875 260.863281 C 157.917969 261.738281 159.585938 259.628906 158.003906 257.289062 C 156.488281 255.050781 152.464844 253.324219 149.5625 253.675781 C 149.015625 253.769531 148.492188 253.859375 147.960938 254.230469 C 145.40625 255.984375 148.746094 259.824219 153.71875 260.863281 " fill-opacity="1" fill-rule="nonzero"></path>
  <path fill="#d9d9d9" d="M 61.804688 49.722656 C 61.992188 50.835938 64.21875 49.007812 66.875 45.5625 C 66.921875 45.503906 71.378906 39.695312 70.539062 38.761719 C 68.777344 38.277344 61.429688 47.5 61.804688 49.722656 " fill-opacity="1" fill-rule="nonzero"></path>
  <path fill="#d9d9d9" d="M 154.625 268.199219 C 156.992188 268.167969 157.429688 266.957031 155.660156 265.324219 C 154.257812 264.027344 150.933594 262.171875 147.523438 262.367188 C 147.117188 262.410156 146.371094 262.535156 145.984375 262.917969 C 144.292969 264.605469 150.269531 268.253906 154.625 268.199219 " fill-opacity="1" fill-rule="nonzero"></path>
  <path fill="#d9d9d9" d="M 101.203125 53.390625 C 97.492188 53.757812 93.90625 61.1875 95.871094 64.429688 C 97.488281 67.09375 101.964844 64.839844 103.414062 59.628906 C 104.121094 57.085938 104.113281 53.328125 101.203125 53.390625 " fill-opacity="1" fill-rule="nonzero"></path>
  <path fill="#d9d9d9" d="M 127.558594 89.601562 C 122.5625 90.5 120.53125 98.128906 124.3125 101.785156 C 127.753906 105.109375 134.046875 102.1875 133.875 95.957031 C 133.796875 93.105469 132.046875 89.058594 127.558594 89.601562 " fill-opacity="1" fill-rule="nonzero"></path>
  <path fill="#d9d9d9" d="M 169.089844 235.457031 C 168.382812 233.460938 165.523438 230.527344 160.851562 231.160156 C 160.519531 231.222656 160.015625 231.339844 159.515625 231.550781 C 155.59375 233.203125 156.355469 238.144531 160.859375 240.21875 C 165.621094 242.410156 170.542969 239.566406 169.089844 235.457031 " fill-opacity="1" fill-rule="nonzero"></path>
  <path fill="#d9d9d9" d="M 53.546875 52.539062 C 55.441406 49.785156 57.761719 46.285156 58.074219 45.25 C 58.058594 45.21875 58.042969 45.175781 58.03125 45.144531 C 56.921875 45.523438 50.246094 55.558594 50.515625 56.449219 C 50.640625 56.40625 50.96875 56.289062 53.546875 52.539062 " fill-opacity="1" fill-rule="nonzero"></path>
  <path fill="#d9d9d9" d="M 62.921875 42.550781 C 62.964844 42.496094 67.523438 37.007812 67.53125 35.972656 C 67.515625 35.957031 67.5 35.9375 67.484375 35.917969 C 66.191406 35.859375 58.402344 45.492188 59.066406 46.332031 C 59.636719 46.375 61.726562 43.984375 62.921875 42.550781 " fill-opacity="1" fill-rule="nonzero"></path>
  <path fill="#d9d9d9" d="M 140.390625 273.761719 C 140.089844 273.742188 140.089844 273.742188 140.011719 273.816406 C 140.714844 274.511719 150.699219 276.976562 151.625 276.6875 C 151.5 276.617188 151.296875 276.503906 148.472656 275.71875 C 144.410156 274.59375 141.691406 273.933594 140.390625 273.761719 " fill-opacity="1" fill-rule="nonzero"></path>
  <path fill="#d9d9d9" d="M 164.066406 143.652344 C 158.59375 144.921875 157.183594 152.296875 161.707031 155.980469 C 166.566406 159.941406 173.226562 156.015625 172.339844 149.714844 C 171.917969 146.683594 169.066406 142.796875 164.066406 143.652344 " fill-opacity="1" fill-rule="nonzero"></path>
  <path fill="#d9d9d9" d="M 173.148438 227.929688 C 173.148438 227.929688 173.152344 227.929688 173.152344 227.929688 C 173.152344 227.929688 173.15625 227.929688 173.15625 227.929688 C 173.15625 227.925781 173.160156 227.925781 173.160156 227.925781 C 173.160156 227.925781 173.164062 227.925781 173.164062 227.925781 C 173.167969 227.925781 173.167969 227.925781 173.167969 227.925781 C 173.171875 227.925781 173.171875 227.925781 173.171875 227.925781 C 173.175781 227.925781 173.175781 227.921875 173.175781 227.921875 C 178.289062 226.648438 177.484375 222.535156 177.375 222.066406 C 176.84375 219.792969 174.265625 216.691406 169.335938 217.46875 C 167.394531 217.867188 166.355469 218.898438 165.90625 219.472656 C 163.082031 223.113281 167.003906 228.867188 173.144531 227.929688 C 173.144531 227.929688 173.148438 227.929688 173.148438 227.929688 " fill-opacity="1" fill-rule="nonzero"></path>
  <path fill="#d9d9d9" d="M 98.390625 41.847656 C 95.382812 42.058594 91.253906 48.769531 92.253906 51.824219 C 93.085938 54.371094 96.914062 52.5625 99 47.691406 C 99.953125 45.46875 100.625 41.914062 98.390625 41.847656 " fill-opacity="1" fill-rule="nonzero"></path>
  <path fill="#d9d9d9" d="M 73.785156 38.582031 C 73.746094 39.859375 76.238281 38.125 79.117188 34.871094 C 80.601562 33.199219 83.425781 29.566406 82.703125 29.027344 C 80.851562 28.835938 73.851562 36.339844 73.785156 38.582031 " fill-opacity="1" fill-rule="nonzero"></path>
  <path fill="#d9d9d9" d="M 157.078125 273.390625 C 157.9375 273.132812 157.417969 272.355469 155.753906 271.410156 C 154.351562 270.617188 150.949219 269.132812 148.09375 269.199219 C 148.089844 269.199219 148.089844 269.199219 148.089844 269.199219 C 148.089844 269.199219 148.085938 269.199219 148.085938 269.199219 C 148.082031 269.199219 148.082031 269.203125 148.082031 269.203125 C 148.082031 269.203125 148.082031 269.203125 148.078125 269.203125 C 148.078125 269.203125 148.074219 269.203125 148.074219 269.203125 C 147.734375 269.238281 147.164062 269.292969 146.972656 269.582031 C 146.015625 271.023438 154.417969 274.195312 157.078125 273.390625 " fill-opacity="1" fill-rule="nonzero"></path>
  <path fill="#d9d9d9" d="M 141.507812 101.808594 C 141.503906 101.8125 141.503906 101.8125 141.5 101.8125 C 141.5 101.8125 141.5 101.8125 141.496094 101.8125 C 141.496094 101.8125 141.496094 101.8125 141.492188 101.8125 C 141.492188 101.8125 141.492188 101.8125 141.488281 101.8125 C 141.488281 101.8125 141.488281 101.816406 141.484375 101.816406 C 141.484375 101.816406 141.484375 101.816406 141.480469 101.816406 C 141.480469 101.816406 141.480469 101.816406 141.476562 101.816406 C 141.476562 101.816406 141.472656 101.816406 141.472656 101.816406 C 135.355469 103.464844 135.40625 111.238281 139.121094 114.078125 C 143.339844 117.308594 149.109375 113.554688 148.617188 107.898438 C 148.378906 105.175781 146.238281 101.113281 141.507812 101.808594 " fill-opacity="1" fill-rule="nonzero"></path>
  <path fill="#d9d9d9" d="M 133.664062 272.609375 L 134.054688 272.722656 C 133.765625 272.636719 133.464844 272.546875 133.183594 272.460938 L 133.664062 272.609375 " fill-opacity="1" fill-rule="nonzero"></path>
  <path fill="#d9d9d9" d="M 179.882812 179.613281 C 179.160156 175.761719 175.335938 173.210938 171.53125 174.050781 C 165.371094 175.78125 165.105469 183.136719 169.730469 186.128906 C 174.691406 189.335938 180.953125 185.320312 179.882812 179.613281 " fill-opacity="1" fill-rule="nonzero"></path>
  <path fill="#d9d9d9" d="M 81.402344 40.023438 C 81.714844 41.550781 84.652344 39.550781 87.332031 35.984375 C 88.605469 34.296875 90.816406 30.6875 89.535156 30.34375 C 87.511719 30.167969 80.863281 37.378906 81.402344 40.023438 " fill-opacity="1" fill-rule="nonzero"></path>
  <path fill="#d9d9d9" d="M 186.996094 207.121094 C 186.65625 204.207031 183.359375 201.464844 179.164062 202.183594 C 174.320312 203.527344 172.9375 208.851562 176.65625 211.839844 C 181.367188 215.625 187.554688 211.941406 186.996094 207.121094 " fill-opacity="1" fill-rule="nonzero"></path>
  <path fill="#d9d9d9" d="M 160.929688 276.925781 C 161.335938 276.703125 159.511719 276.042969 158.945312 275.847656 C 156.625 275.046875 152.933594 274.164062 151.351562 274.183594 C 151.121094 274.195312 150.730469 274.21875 150.730469 274.402344 C 150.722656 275.320312 159.777344 277.5625 160.929688 276.925781 " fill-opacity="1" fill-rule="nonzero"></path>
  <path fill="#d9d9d9" d="M 157.476562 113.820312 C 157.476562 113.820312 157.472656 113.820312 157.472656 113.820312 C 157.472656 113.820312 157.46875 113.824219 157.46875 113.824219 C 157.46875 113.824219 157.46875 113.824219 157.464844 113.824219 C 157.464844 113.824219 157.460938 113.824219 157.460938 113.824219 C 157.460938 113.824219 157.460938 113.824219 157.457031 113.824219 C 157.457031 113.824219 157.457031 113.824219 157.453125 113.824219 C 157.453125 113.824219 157.449219 113.828125 157.449219 113.828125 C 157.449219 113.828125 157.449219 113.828125 157.445312 113.828125 C 152.109375 115.378906 151 122.6875 155.617188 125.859375 C 160.453125 129.183594 165.746094 124.601562 164.984375 119.414062 C 164.578125 116.632812 161.742188 113.140625 157.476562 113.820312 " fill-opacity="1" fill-rule="nonzero"></path>
  <path fill="#d9d9d9" d="M 91.964844 40.0625 C 92.484375 41.828125 95.589844 39.761719 97.792969 36.183594 C 98.8125 34.519531 100.382812 31.027344 98.710938 30.820312 C 95.976562 31.15625 91.25 37.632812 91.964844 40.0625 " fill-opacity="1" fill-rule="nonzero"></path>
  <path fill="#d9d9d9" d="M 69.746094 36.191406 C 69.746094 36.191406 69.746094 36.191406 69.75 36.191406 C 69.75 36.191406 69.75 36.191406 69.75 36.195312 C 70.40625 36.46875 73.433594 33.425781 74.34375 32.488281 C 74.527344 32.296875 78.859375 27.824219 78.648438 27.050781 C 78.625 27.039062 78.597656 27.019531 78.574219 27.015625 C 77.679688 26.863281 69.132812 34.660156 69.746094 36.191406 " fill-opacity="1" fill-rule="nonzero"></path>
  <path fill="#d9d9d9" d="M 177.90625 253.847656 C 177.203125 252.332031 174.617188 250.417969 171.082031 250.902344 C 170.582031 250.996094 170.082031 251.164062 169.707031 251.363281 C 167.066406 252.78125 168.21875 255.96875 171.835938 257.246094 C 175.683594 258.601562 179.199219 256.632812 177.90625 253.847656 " fill-opacity="1" fill-rule="nonzero"></path>
  <path fill="#d9d9d9" d="M 123.492188 73.128906 C 126.296875 76.164062 131.070312 73.03125 131.117188 68.125 C 131.140625 65.761719 129.75 62.597656 126.585938 62.960938 C 122.703125 63.683594 120.738281 70.148438 123.492188 73.128906 " fill-opacity="1" fill-rule="nonzero"></path>
  <path fill="#d9d9d9" d="M 169.289062 265.71875 C 172.582031 266.316406 174.566406 264.898438 173.21875 262.914062 C 172.042969 261.179688 168.847656 259.980469 166.382812 260.34375 C 165.984375 260.417969 165.316406 260.546875 164.8125 260.949219 C 163.035156 262.363281 165.542969 265.039062 169.289062 265.71875 " fill-opacity="1" fill-rule="nonzero"></path>
  <path fill="#d9d9d9" d="M 117.902344 51.851562 C 114 52.714844 112.152344 59.21875 114.320312 61.703125 C 116.324219 64 120.535156 61.707031 121.152344 57.011719 C 121.515625 54.253906 120.375 51.5 117.902344 51.851562 " fill-opacity="1" fill-rule="nonzero"></path>
  <path fill="#d9d9d9" d="M 184.648438 242.871094 C 184.101562 241.246094 181.867188 239.0625 177.960938 239.699219 C 177.777344 239.738281 177.371094 239.847656 177.367188 239.847656 C 173.390625 241.054688 173.839844 245.085938 177.136719 246.800781 C 181.152344 248.890625 185.855469 246.429688 184.648438 242.871094 " fill-opacity="1" fill-rule="nonzero"></path>
  <path fill="#d9d9d9" d="M 112.210938 40.992188 C 109.214844 41.375 106.265625 47.484375 107.828125 50.070312 C 109.136719 52.230469 112.796875 50.367188 114.007812 46.109375 C 114.613281 43.980469 114.632812 40.863281 112.210938 40.992188 " fill-opacity="1" fill-rule="nonzero"></path>
  <path fill="#d9d9d9" d="M 138.015625 74.335938 C 133.027344 75.640625 132.761719 82.253906 135.636719 84.734375 C 138.617188 87.304688 143.734375 84.734375 143.496094 79.632812 C 143.332031 76.15625 140.875 73.78125 138.015625 74.335938 " fill-opacity="1" fill-rule="nonzero"></path>
  <path fill="#d9d9d9" d="M 169.835938 271.996094 C 171.714844 271.878906 172.085938 271.003906 170.742188 269.875 C 169.332031 268.691406 166.488281 267.636719 164.164062 267.917969 C 163.804688 267.976562 163.207031 268.074219 162.875 268.386719 C 161.488281 269.6875 166.371094 272.214844 169.835938 271.996094 " fill-opacity="1" fill-rule="nonzero"></path>
  <path fill="#d9d9d9" d="M 171.78125 276.144531 C 172.449219 275.941406 172.09375 275.453125 170.84375 274.875 C 169.511719 274.261719 166.730469 273.394531 164.53125 273.535156 C 164.191406 273.570312 163.761719 273.652344 163.625 273.859375 C 162.972656 274.855469 169.753906 276.757812 171.78125 276.144531 " fill-opacity="1" fill-rule="nonzero"></path>
  <path fill="#d9d9d9" d="M 94.789062 28.585938 C 95.03125 29.671875 97.476562 28.050781 99.820312 25.257812 C 101.664062 23.058594 103.019531 20.648438 102.097656 20.570312 C 99.929688 20.761719 94.402344 26.832031 94.789062 28.585938 " fill-opacity="1" fill-rule="nonzero"></path>
  <path fill="#d9d9d9" d="M 157.515625 277.375 C 157.257812 277.371094 157.257812 277.371094 157.199219 277.425781 C 157.863281 277.84375 166.441406 278.984375 167.066406 278.734375 C 166.84375 278.679688 166.550781 278.632812 164.269531 278.285156 C 160.664062 277.738281 158.679688 277.433594 157.515625 277.375 " fill-opacity="1" fill-rule="nonzero"></path>
  <path fill="#d9d9d9" d="M 110.050781 35.234375 C 111.097656 32.898438 111.203125 30.378906 109.671875 30.496094 C 106.96875 30.992188 103.589844 36.640625 104.65625 38.890625 C 105.515625 40.714844 108.492188 38.699219 110.050781 35.234375 " fill-opacity="1" fill-rule="nonzero"></path>
  <path fill="#d9d9d9" d="M 82.070312 26.191406 C 81.933594 26.933594 83.941406 25.632812 86.734375 23.167969 C 86.78125 23.125 91.394531 19.011719 91.0625 18.460938 C 89.824219 18.234375 82.34375 24.664062 82.070312 26.191406 " fill-opacity="1" fill-rule="nonzero"></path>
  <path fill="#d9d9d9" d="M 182.453125 156.105469 C 176.636719 157.859375 176.871094 164.582031 180.304688 167.34375 C 184.320312 170.570312 190.9375 167.605469 190.082031 161.570312 C 189.527344 157.660156 186.105469 155.210938 182.453125 156.105469 " fill-opacity="1" fill-rule="nonzero"></path>
  <path fill="#d9d9d9" d="M 95.460938 19.859375 C 93.675781 19.824219 86.875 26.289062 87 27.898438 C 87.066406 28.738281 89.070312 27.679688 92.191406 24.511719 C 92.359375 24.339844 96.335938 20.289062 95.460938 19.859375 " fill-opacity="1" fill-rule="nonzero"></path>
  <path fill="#d9d9d9" d="M 189.890625 185.734375 C 184.664062 187.058594 184.046875 193.242188 187.742188 195.859375 C 191.878906 198.785156 197.859375 195.300781 197.152344 190.375 C 196.824219 188.082031 194.5625 184.796875 189.890625 185.734375 " fill-opacity="1" fill-rule="nonzero"></path>
  <path fill="#d9d9d9" d="M 67.671875 32.578125 C 67.683594 32.554688 67.683594 32.511719 67.683594 32.484375 C 66.84375 32.859375 60.078125 40.863281 60.0625 41.5 C 60.253906 41.382812 60.757812 40.847656 62.972656 38.265625 C 66.605469 34.035156 67.378906 33.0625 67.671875 32.578125 " fill-opacity="1" fill-rule="nonzero"></path>
  <path fill="#d9d9d9" d="M 174.90625 125.90625 C 169.042969 127.691406 169.53125 134.679688 173.308594 137.191406 C 177.675781 140.09375 183.117188 136.398438 182.265625 131.105469 C 181.679688 127.457031 178.308594 125.078125 174.90625 125.90625 " fill-opacity="1" fill-rule="nonzero"></path>
  <path fill="#d9d9d9" d="M 151.859375 85.660156 C 146.964844 87.0625 146.546875 93.546875 150.121094 96.136719 C 153.859375 98.847656 158.746094 95.390625 158.046875 90.535156 C 157.726562 88.308594 155.761719 85.011719 151.859375 85.660156 " fill-opacity="1" fill-rule="nonzero"></path>
  <path fill="#d9d9d9" d="M 193.167969 230.285156 C 192.71875 228.074219 190.261719 226.082031 186.59375 226.753906 C 182.082031 227.800781 181.605469 232.28125 184.699219 234.414062 C 188.441406 236.996094 193.984375 234.292969 193.167969 230.285156 " fill-opacity="1" fill-rule="nonzero"></path>
  <path fill="#d9d9d9" d="M 72.59375 29.476562 C 72.636719 29.433594 77.105469 25.132812 77.398438 24.378906 C 77.398438 24.378906 77.398438 24.378906 77.382812 24.339844 C 76.421875 24.300781 68.8125 31.71875 68.992188 32.519531 C 69.332031 32.550781 71.394531 30.625 72.59375 29.476562 " fill-opacity="1" fill-rule="nonzero"></path>
  <path fill="#d9d9d9" d="M 166.453125 107.199219 C 170.65625 109.953125 175.027344 105.996094 174.238281 101.609375 C 173.828125 99.324219 171.472656 96.273438 167.71875 96.984375 C 163.640625 98.023438 162.183594 104.402344 166.453125 107.199219 " fill-opacity="1" fill-rule="nonzero"></path>
  <path fill="#d9d9d9" d="M 202.921875 215.898438 C 202.617188 213.59375 200.117188 211.542969 196.613281 212.238281 C 192.832031 213.195312 190.898438 217.769531 194.292969 220.3125 C 198.199219 223.234375 203.441406 219.839844 202.921875 215.898438 " fill-opacity="1" fill-rule="nonzero"></path>
  <path fill="#d9d9d9" d="M 167.703125 277.246094 C 167.332031 277.277344 167.230469 277.3125 167.195312 277.40625 C 167.542969 278.097656 174.464844 278.851562 175.347656 278.511719 C 175.351562 278.496094 175.355469 278.472656 175.359375 278.453125 C 175.289062 278.402344 175.097656 278.261719 173.40625 277.925781 C 172.777344 277.800781 169.539062 277.179688 167.703125 277.246094 " fill-opacity="1" fill-rule="nonzero"></path>
  <path fill="#d9d9d9" d="M 104.621094 27.90625 C 104.863281 29.3125 107.222656 28.058594 109.304688 24.855469 C 110.632812 22.816406 111.378906 20.636719 110.269531 20.675781 C 108.265625 20.980469 104.304688 26.050781 104.621094 27.90625 " fill-opacity="1" fill-rule="nonzero"></path>
  <path fill="#d9d9d9" d="M 83.988281 20.984375 C 85.710938 19.597656 88.617188 17.183594 88.746094 16.644531 C 88.21875 16.171875 80.308594 22.554688 80.199219 23.546875 C 80.269531 23.617188 80.476562 23.824219 83.988281 20.984375 " fill-opacity="1" fill-rule="nonzero"></path>
  <path fill="#d9d9d9" d="M 134.011719 57.492188 C 136.148438 59.546875 139.902344 57.507812 139.792969 53.445312 C 139.75 51.859375 138.910156 48.96875 136.046875 49.378906 C 132.761719 50.074219 131.867188 55.433594 134.011719 57.492188 " fill-opacity="1" fill-rule="nonzero"></path>
  <path fill="#d9d9d9" d="M 186.5625 257.261719 C 186.347656 257.308594 186.066406 257.378906 185.859375 257.453125 C 183.292969 258.375 183.863281 260.742188 186.148438 261.773438 C 188.765625 262.949219 192.480469 261.714844 191.628906 259.375 C 191.222656 258.253906 189.539062 256.773438 186.5625 257.261719 " fill-opacity="1" fill-rule="nonzero"></path>
  <path fill="#d9d9d9" d="M 130.203125 43.304688 C 130.433594 41.058594 129.507812 38.929688 127.554688 39.25 C 124.53125 39.988281 123.25 45.011719 124.964844 46.972656 C 126.578125 48.816406 129.816406 47.03125 130.203125 43.304688 " fill-opacity="1" fill-rule="nonzero"></path>
  <path fill="#d9d9d9" d="M 183.160156 269.3125 C 185.601562 269.761719 187.765625 268.851562 186.71875 267.265625 C 185.871094 265.972656 183.648438 265.234375 181.664062 265.582031 C 181.339844 265.648438 180.804688 265.765625 180.390625 266.058594 C 179.019531 267.035156 180.546875 268.828125 183.160156 269.3125 " fill-opacity="1" fill-rule="nonzero"></path>
  <path fill="#d9d9d9" d="M 198.617188 249.339844 C 198.3125 248.085938 196.714844 246.433594 193.578125 247.019531 C 189.859375 248.007812 190.050781 251.074219 192.269531 252.363281 C 195.199219 254.066406 199.292969 252.113281 198.617188 249.339844 " fill-opacity="1" fill-rule="nonzero"></path>
  <path fill="#d9d9d9" d="M 193.269531 137.851562 C 188.175781 139.269531 188.417969 145.550781 191.601562 147.921875 C 195.210938 150.605469 201 147.585938 199.984375 142.296875 C 199.605469 140.324219 197.710938 136.859375 193.269531 137.851562 " fill-opacity="1" fill-rule="nonzero"></path>
  <path fill="#d9d9d9" d="M 108.34375 11.304688 C 106.804688 11.390625 100.832031 16.460938 100.824219 17.6875 C 100.820312 18.304688 102.4375 17.496094 105.152344 15.066406 C 105.191406 15.03125 109.050781 11.5625 108.34375 11.304688 " fill-opacity="1" fill-rule="nonzero"></path>
  <path fill="#d9d9d9" d="M 95.703125 16.753906 C 95.65625 17.265625 97.382812 16.261719 100 14.246094 C 100.417969 13.925781 104.09375 11.089844 104.140625 10.519531 C 104.128906 10.507812 104.113281 10.496094 104.101562 10.484375 C 102.945312 10.410156 95.800781 15.742188 95.703125 16.753906 " fill-opacity="1" fill-rule="nonzero"></path>
  <path fill="#d9d9d9" d="M 199.03125 177.863281 C 202.503906 180.410156 208.269531 177.601562 207.550781 172.535156 C 207.273438 170.574219 205.542969 167.132812 200.980469 168.152344 C 195.4375 169.964844 196.28125 175.851562 199.03125 177.863281 " fill-opacity="1" fill-rule="nonzero"></path>
  <path fill="#d9d9d9" d="M 145.832031 68.046875 C 148.636719 70.355469 152.46875 67.601562 151.949219 63.648438 C 151.714844 61.863281 150.253906 59.210938 147.332031 59.699219 C 144.019531 60.46875 143.066406 65.773438 145.832031 68.046875 " fill-opacity="1" fill-rule="nonzero"></path>
  <path fill="#d9d9d9" d="M 213.394531 199.8125 C 213.039062 197.277344 210.25 195.625 207.542969 196.34375 C 203.519531 197.652344 202.222656 202.25 205.230469 204.546875 C 208.90625 207.347656 213.9375 203.71875 213.394531 199.8125 " fill-opacity="1" fill-rule="nonzero"></path>
  <path fill="#d9d9d9" d="M 183.652344 274.476562 C 184.816406 274.277344 184.976562 273.671875 184.039062 273 C 183.265625 272.449219 181.273438 271.671875 179.210938 271.921875 C 178.535156 272.027344 178.25 272.230469 178.128906 272.386719 C 177.324219 273.429688 181.195312 274.894531 183.652344 274.476562 " fill-opacity="1" fill-rule="nonzero"></path>
  <path fill="#d9d9d9" d="M 118.847656 36.476562 C 119.90625 38.300781 122.652344 36.5 123.511719 33.414062 C 124.082031 31.363281 123.636719 29.222656 122.085938 29.429688 C 119.730469 29.976562 117.671875 34.453125 118.847656 36.476562 " fill-opacity="1" fill-rule="nonzero"></path>
  <path fill="#d9d9d9" d="M 202.414062 234.9375 C 199.316406 235.863281 198.101562 238.917969 200.140625 240.675781 C 203.007812 243.148438 207.59375 240.71875 207.382812 237.671875 C 207.246094 235.71875 204.789062 234.363281 202.414062 234.9375 " fill-opacity="1" fill-rule="nonzero"></path>
  <path fill="#d9d9d9" d="M 163.316406 79.203125 C 163.320312 79.203125 163.320312 79.203125 163.320312 79.203125 C 163.320312 79.203125 163.324219 79.203125 163.324219 79.203125 C 163.324219 79.203125 163.328125 79.203125 163.328125 79.203125 C 163.328125 79.203125 163.328125 79.203125 163.332031 79.203125 C 163.332031 79.203125 163.332031 79.199219 163.332031 79.199219 C 165.972656 78.34375 166.566406 75.683594 166.320312 74.105469 C 165.914062 71.5 163.363281 69.558594 161.066406 70.113281 C 160.601562 70.261719 159.632812 70.570312 158.832031 71.824219 C 156.597656 75.308594 159.40625 79.929688 163.316406 79.203125 " fill-opacity="1" fill-rule="nonzero"></path>
  <path fill="#d9d9d9" d="M 183.71875 117.597656 C 187.777344 120.65625 192.285156 116.941406 191.484375 112.605469 C 191.003906 110.015625 188.4375 107.644531 185.128906 108.320312 C 181.117188 109.648438 180.300781 115.023438 183.71875 117.597656 " fill-opacity="1" fill-rule="nonzero"></path>
  <path fill="#d9d9d9" d="M 92.988281 15.082031 C 93.351562 15.195312 95.890625 13.5 96.960938 12.769531 C 97.007812 12.734375 101.453125 9.6875 101.574219 9.214844 C 100.714844 9.003906 92.929688 14.320312 92.988281 15.082031 " fill-opacity="1" fill-rule="nonzero"></path>
  <path fill="#d9d9d9" d="M 119.808594 20.097656 C 118.035156 20.492188 115.3125 24.605469 116.011719 26.441406 C 116.628906 28.070312 119.0625 25.964844 120.125 23.410156 C 120.8125 21.765625 120.820312 19.996094 119.808594 20.097656 " fill-opacity="1" fill-rule="nonzero"></path>
  <path fill="#d9d9d9" d="M 114.042969 11.578125 C 112.8125 11.609375 107.882812 16.253906 107.910156 17.757812 C 107.929688 18.71875 110.136719 17.097656 111.949219 15.113281 C 113.023438 13.9375 114.742188 11.695312 114.042969 11.578125 " fill-opacity="1" fill-rule="nonzero"></path>
  <path fill="#d9d9d9" d="M 184.042969 276.824219 C 182.835938 276.429688 180.589844 276.097656 179.390625 276.242188 C 179.171875 276.277344 178.804688 276.335938 178.746094 276.515625 C 178.492188 277.324219 183.855469 277.949219 184.835938 277.5 C 185.234375 277.316406 184.6875 277.03125 184.042969 276.824219 " fill-opacity="1" fill-rule="nonzero"></path>
  <path fill="#d9d9d9" d="M 78.777344 21.226562 C 78.789062 21.210938 78.800781 21.183594 78.8125 21.164062 C 78.300781 21.390625 71.964844 27.195312 71.636719 27.90625 C 71.75 27.820312 71.75 27.820312 74.367188 25.386719 C 77.714844 22.273438 78.511719 21.53125 78.777344 21.226562 " fill-opacity="1" fill-rule="nonzero"></path>
  <path fill="#d9d9d9" d="M 84.027344 18.050781 C 88.148438 14.910156 88.457031 14.546875 88.683594 14.28125 C 88.246094 14.046875 81.164062 19.460938 81.109375 20.078125 C 81.179688 20.085938 81.34375 20.097656 84.027344 18.050781 " fill-opacity="1" fill-rule="nonzero"></path>
  <path fill="#d9d9d9" d="M 110 7.929688 C 110.175781 8.144531 111.265625 7.546875 113.882812 5.796875 C 114.4375 5.425781 117.207031 3.558594 117.335938 3.207031 C 117.328125 3.199219 117.320312 3.191406 117.3125 3.1875 C 116.792969 3.117188 110.105469 7.035156 110 7.929688 " fill-opacity="1" fill-rule="nonzero"></path>
  <path fill="#d9d9d9" d="M 217.238281 224.230469 C 217.238281 224.1875 217.03125 220.210938 212.632812 221.398438 C 207.570312 222.945312 209.761719 226.996094 210.242188 227.484375 C 211.878906 229.164062 217.011719 228.269531 217.238281 224.230469 " fill-opacity="1" fill-rule="nonzero"></path>
  <path fill="#d9d9d9" d="M 120.652344 11.527344 C 119.304688 11.792969 116.261719 15.582031 116.425781 16.789062 C 116.550781 17.707031 118.285156 16.710938 119.742188 14.570312 C 120.09375 14.050781 121.792969 11.464844 120.652344 11.527344 " fill-opacity="1" fill-rule="nonzero"></path>
  <path fill="#d9d9d9" d="M 186.519531 278.578125 C 184.265625 278.484375 183.25 278.472656 182.507812 278.53125 C 182.128906 278.570312 182.113281 278.59375 182.089844 278.636719 C 182.59375 278.929688 187.320312 278.851562 188.003906 278.683594 C 187.960938 278.652344 187.945312 278.640625 186.519531 278.578125 " fill-opacity="1" fill-rule="nonzero"></path>
  <path fill="#d9d9d9" d="M 216.902344 187.164062 C 217.578125 187.667969 219.4375 188.664062 222.082031 186.921875 C 222.949219 186.347656 224.351562 185.015625 223.992188 182.492188 C 223.519531 179.1875 220.863281 178.738281 218.730469 179.359375 C 214.425781 180.871094 214.871094 185.636719 216.902344 187.164062 " fill-opacity="1" fill-rule="nonzero"></path>
  <path fill="#d9d9d9" d="M 210.238281 158.453125 C 212.347656 160.199219 218.226562 159.203125 217.640625 153.546875 C 217.636719 153.492188 216.882812 148.417969 211.941406 149.675781 C 206.664062 151.261719 208.472656 156.988281 210.238281 158.453125 " fill-opacity="1" fill-rule="nonzero"></path>
  <path fill="#d9d9d9" d="M 202.449219 128.121094 C 202.855469 128.394531 205.003906 129.691406 207.453125 127.996094 C 208.527344 127.253906 209.695312 125.863281 209.175781 123.457031 C 208.503906 120.339844 206.265625 118.921875 203.34375 119.761719 C 199.054688 121.300781 200.023438 126.464844 202.449219 128.121094 " fill-opacity="1" fill-rule="nonzero"></path>
  <path fill="#d9d9d9" d="M 176.316406 88.714844 C 178.757812 90.140625 183.136719 88.820312 182.191406 84.433594 C 181.703125 82.15625 179.773438 80.164062 177.03125 80.757812 C 172.722656 81.964844 173.84375 87.277344 176.316406 88.714844 " fill-opacity="1" fill-rule="nonzero"></path>
  <path fill="#d9d9d9" d="M 100.414062 7.722656 C 100.414062 7.710938 100.398438 7.699219 100.390625 7.691406 C 99.683594 7.710938 93.597656 11.421875 92.753906 12.527344 C 93.121094 12.476562 93.992188 11.988281 96.210938 10.582031 C 99.359375 8.59375 100.300781 7.949219 100.414062 7.722656 " fill-opacity="1" fill-rule="nonzero"></path>
  <path fill="#d9d9d9" d="M 194.753906 269.492188 C 194.515625 269.546875 194.121094 269.640625 193.832031 269.839844 C 193.121094 270.339844 193.367188 271.378906 195.164062 271.792969 C 196.699219 272.144531 198.804688 271.578125 198.09375 270.421875 C 197.65625 269.714844 196.453125 269.152344 194.753906 269.492188 " fill-opacity="1" fill-rule="nonzero"></path>
  <path fill="#d9d9d9" d="M 114.5625 8.4375 C 115.136719 8.230469 115.925781 7.828125 117.777344 6.347656 C 119.292969 5.132812 121.027344 3.671875 120.675781 3.585938 C 120.675781 3.585938 120.671875 3.585938 120.667969 3.585938 C 119.910156 3.628906 113.917969 7.8125 114.5625 8.4375 " fill-opacity="1" fill-rule="nonzero"></path>
  <path fill="#d9d9d9" d="M 107.140625 7.007812 C 107.78125 6.832031 108.808594 6.300781 111.066406 4.976562 C 114.875 2.746094 114.921875 2.617188 114.964844 2.496094 L 114.964844 2.492188 C 114.964844 2.492188 114.964844 2.492188 114.960938 2.492188 C 114.402344 2.414062 107.585938 6.121094 107.140625 7.007812 " fill-opacity="1" fill-rule="nonzero"></path>
  <path fill="#d9d9d9" d="M 199.898438 262.371094 C 199.777344 262.398438 199.664062 262.429688 199.546875 262.464844 C 198.023438 262.9375 197.230469 264.492188 199.164062 265.4375 C 200.867188 266.273438 203.742188 265.265625 203.222656 263.636719 C 203.125 263.335938 202.511719 261.859375 199.898438 262.371094 " fill-opacity="1" fill-rule="nonzero"></path>
  <path fill="#d9d9d9" d="M 134.054688 33.164062 C 134.898438 34.253906 137.429688 33.910156 137.722656 30.480469 C 137.726562 30.449219 137.707031 27.417969 135.695312 27.703125 C 133.402344 28.191406 133.09375 31.925781 134.054688 33.164062 " fill-opacity="1" fill-rule="nonzero"></path>
  <path fill="#d9d9d9" d="M 142.953125 42.640625 C 142.964844 42.648438 144.253906 43.71875 145.464844 42.867188 C 145.898438 42.5625 147.058594 41.746094 146.929688 39.839844 C 146.921875 39.695312 146.664062 36.300781 144.03125 36.75 C 141.460938 37.355469 141.398438 41.328125 142.953125 42.640625 " fill-opacity="1" fill-rule="nonzero"></path>
  <path fill="#d9d9d9" d="M 207.09375 253.3125 C 204.535156 254.03125 204.425781 256.039062 205.707031 256.96875 C 207.148438 258.007812 210.6875 257.0625 210.394531 254.804688 C 210.214844 253.429688 208.953125 252.855469 207.09375 253.3125 " fill-opacity="1" fill-rule="nonzero"></path>
  <path fill="#d9d9d9" d="M 193.753906 98.667969 C 195.726562 99.921875 200.105469 99.085938 199.347656 94.609375 C 199.222656 93.875 197.832031 90.359375 194.226562 91.402344 C 190.066406 92.828125 192.03125 97.570312 193.753906 98.667969 " fill-opacity="1" fill-rule="nonzero"></path>
  <path fill="#d9d9d9" d="M 223.792969 206.203125 C 219.582031 207.617188 220.660156 211.25 221.324219 212.101562 C 222.894531 214.097656 227.730469 212.871094 227.984375 208.875 C 228.023438 208.257812 227.417969 205.144531 223.792969 206.203125 " fill-opacity="1" fill-rule="nonzero"></path>
  <path fill="#d9d9d9" d="M 87.027344 14.292969 C 90.375 11.835938 90.375 11.835938 90.578125 11.65625 C 90.601562 11.632812 90.625 11.609375 90.636719 11.582031 C 90.105469 11.808594 85.289062 15.398438 84.914062 15.847656 C 85.664062 15.386719 86.324219 14.8125 87.027344 14.292969 " fill-opacity="1" fill-rule="nonzero"></path>
  <g clip-path="url(#c617a25a8e)">
    <path fill="#d9d9d9" d="M 113.460938 1.636719 C 113.203125 1.496094 107.082031 4.488281 106.359375 5.285156 C 106.558594 5.34375 107.496094 4.882812 109.664062 3.753906 C 112.699219 2.175781 113.371094 1.800781 113.460938 1.636719 " fill-opacity="1" fill-rule="nonzero"></path>
  </g>
  <path fill="#d9d9d9" d="M 194.636719 275.832031 C 195.652344 275.695312 195.851562 275.429688 195.269531 275.007812 C 195.257812 275 193.988281 274.210938 192.167969 274.53125 C 191.949219 274.574219 191.496094 274.664062 191.351562 274.859375 C 191.003906 275.324219 192.855469 276.085938 194.636719 275.832031 " fill-opacity="1" fill-rule="nonzero"></path>
  <path fill="#d9d9d9" d="M 131.4375 21.628906 C 131.660156 20.410156 131.660156 18.984375 130.410156 19.132812 C 128.507812 19.496094 127.753906 23.121094 128.445312 24.015625 C 129.09375 24.855469 130.964844 24.25 131.4375 21.628906 " fill-opacity="1" fill-rule="nonzero"></path>
  <path fill="#d9d9d9" d="M 219.320312 244.023438 C 219.289062 243.113281 218.847656 241.683594 216.253906 242.3125 C 212.464844 243.476562 214.015625 246.105469 214.363281 246.421875 C 215.625 247.5625 219.402344 246.507812 219.320312 244.023438 " fill-opacity="1" fill-rule="nonzero"></path>
  <path fill="#d9d9d9" d="M 123.0625 6.011719 C 123.136719 5.933594 123.234375 5.835938 123.308594 5.757812 C 125.054688 3.949219 124.949219 3.746094 124.71875 3.753906 C 123.820312 3.894531 120.347656 7.105469 120.296875 7.84375 C 120.273438 8.175781 120.9375 8.179688 123.0625 6.011719 " fill-opacity="1" fill-rule="nonzero"></path>
  <path fill="#d9d9d9" d="M 154.628906 52.183594 C 156.265625 53.265625 159.375 52.238281 158.699219 48.976562 C 158.347656 47.277344 157.238281 45.640625 155.1875 46.140625 C 152.0625 47.074219 153.140625 51.199219 154.628906 52.183594 " fill-opacity="1" fill-rule="nonzero"></path>
  <path fill="#d9d9d9" d="M 168.667969 61.582031 C 170.625 62.730469 173.601562 61.308594 172.707031 58.296875 C 172.34375 57.074219 171.363281 55.109375 168.894531 55.671875 C 165.699219 56.558594 167.0625 60.640625 168.667969 61.582031 " fill-opacity="1" fill-rule="nonzero"></path>
  <path fill="#d9d9d9" d="M 220.992188 137.871094 C 222.75 139.480469 227.246094 138.949219 226.855469 133.894531 C 226.746094 132.46875 225.019531 131.304688 225 131.296875 C 223.894531 130.605469 222.847656 130.890625 222.285156 131.046875 C 218.414062 132.320312 219.507812 136.511719 220.992188 137.871094 " fill-opacity="1" fill-rule="nonzero"></path>
  <path fill="#d9d9d9" d="M 192.21875 277.40625 C 192.0625 277.429688 191.742188 277.484375 191.75 277.566406 C 191.761719 277.683594 192.5 277.816406 193.671875 277.824219 C 194.25 277.828125 195.597656 277.746094 195.664062 277.597656 C 195.625 277.5625 195.5625 277.53125 195.109375 277.457031 C 195.09375 277.453125 193.46875 277.214844 192.21875 277.40625 " fill-opacity="1" fill-rule="nonzero"></path>
  <path fill="#d9d9d9" d="M 125.945312 15.070312 C 126.023438 15.292969 126.285156 15.753906 126.992188 15.230469 C 127.386719 14.9375 127.964844 14.414062 128.445312 13.21875 C 128.789062 12.363281 129.234375 10.941406 128.347656 11.007812 C 127.167969 11.195312 125.609375 14.125 125.945312 15.070312 " fill-opacity="1" fill-rule="nonzero"></path>
  <path fill="#d9d9d9" d="M 228.640625 168.078125 C 229.609375 168.753906 231.535156 168.789062 232.210938 168.316406 C 232.84375 167.875 234.769531 166.535156 234.375 164.082031 C 234.058594 162.105469 232.601562 160.476562 230.058594 161.289062 C 226.042969 162.765625 227.199219 167.074219 228.640625 168.078125 " fill-opacity="1" fill-rule="nonzero"></path>
  <path fill="#d9d9d9" d="M 97.339844 8.050781 C 97.371094 8.03125 100.535156 6.183594 100.890625 5.851562 C 100.890625 5.839844 100.890625 5.828125 100.890625 5.816406 C 100.371094 5.90625 95.582031 8.679688 94.945312 9.34375 C 94.949219 9.351562 94.953125 9.367188 94.953125 9.371094 C 95.152344 9.316406 95.734375 8.984375 97.339844 8.050781 " fill-opacity="1" fill-rule="nonzero"></path>
  <path fill="#d9d9d9" d="M 235.480469 189.785156 C 232.488281 190.769531 232.214844 193.855469 233.625 195.269531 C 235.195312 196.84375 238.933594 195.164062 238.882812 192.265625 C 238.871094 191.695312 238.660156 188.882812 235.480469 189.785156 " fill-opacity="1" fill-rule="nonzero"></path>
  <path fill="#d9d9d9" d="M 229.492188 231.316406 C 229.5 230.574219 229.246094 228.917969 226.761719 229.570312 C 223.863281 230.445312 223.9375 232.90625 224.746094 233.757812 C 225.976562 235.054688 229.472656 233.636719 229.492188 231.316406 " fill-opacity="1" fill-rule="nonzero"></path>
  <path fill="#d9d9d9" d="M 212.324219 108.175781 C 214.363281 109.46875 217.882812 107.882812 216.996094 104.683594 C 216.769531 103.855469 215.785156 101.222656 212.773438 102.0625 C 209.371094 103.191406 210.644531 107.109375 212.324219 108.175781 " fill-opacity="1" fill-rule="nonzero"></path>
  <path fill="#d9d9d9" d="M 184.574219 70.730469 C 186.042969 71.660156 189.234375 71.078125 188.460938 67.828125 C 188.453125 67.796875 187.546875 64.5625 184.667969 65.40625 C 181.5 66.492188 183.441406 70.011719 184.574219 70.730469 " fill-opacity="1" fill-rule="nonzero"></path>
  <path fill="#d9d9d9" d="M 128.761719 5.464844 C 128.898438 5.277344 130.078125 3.652344 129.503906 3.652344 C 128.65625 3.832031 126.867188 6.269531 126.898438 6.808594 C 126.898438 6.820312 127.152344 7.65625 128.761719 5.464844 " fill-opacity="1" fill-rule="nonzero"></path>
  <path fill="#d9d9d9" d="M 205.339844 272.199219 C 205.25 272.21875 205.160156 272.242188 205.074219 272.273438 C 204.265625 272.546875 204.46875 272.964844 204.859375 273.164062 C 205.5 273.484375 207.082031 273.222656 206.855469 272.535156 C 206.851562 272.53125 206.515625 271.960938 205.339844 272.199219 " fill-opacity="1" fill-rule="nonzero"></path>
  <path fill="#d9d9d9" d="M 238.050781 215.355469 C 236.507812 215.921875 235.421875 217.835938 236.421875 219.019531 C 237.441406 220.222656 240.191406 219.101562 240.390625 216.9375 C 240.542969 215.285156 239.324219 214.953125 238.050781 215.355469 " fill-opacity="1" fill-rule="nonzero"></path>
  <path fill="#d9d9d9" d="M 202.257812 79.734375 C 204.121094 80.660156 206.210938 79.195312 205.339844 76.933594 C 204.773438 75.460938 203.46875 74.765625 202.09375 75.203125 C 199.585938 76.148438 200.902344 79.066406 202.257812 79.734375 " fill-opacity="1" fill-rule="nonzero"></path>
  <path fill="#d9d9d9" d="M 210.667969 266.453125 C 209.472656 266.753906 209.285156 267.503906 209.675781 267.890625 C 210.363281 268.554688 212.253906 267.964844 212.207031 267.101562 C 212.1875 266.738281 211.84375 266.195312 210.667969 266.453125 " fill-opacity="1" fill-rule="nonzero"></path>
  <path fill="#d9d9d9" d="M 240.027344 147.476562 C 241.195312 148.347656 243.949219 147.351562 243.546875 144.828125 C 243.34375 143.566406 242.691406 142.191406 240.71875 142.800781 C 238.152344 143.714844 238.929688 146.65625 240.027344 147.476562 " fill-opacity="1" fill-rule="nonzero"></path>
  <path fill="#d9d9d9" d="M 247.007812 172.4375 C 244.539062 173.316406 245.109375 176.011719 245.949219 176.617188 C 245.957031 176.625 247.027344 177.34375 248.34375 176.371094 C 248.640625 176.152344 249.539062 175.492188 249.398438 174.070312 C 249.3125 173.207031 248.890625 171.847656 247.007812 172.4375 " fill-opacity="1" fill-rule="nonzero"></path>
  <path fill="#d9d9d9" d="M 218.066406 258.691406 C 216.230469 259.242188 216.949219 260.480469 216.957031 260.492188 C 217.429688 261.085938 219.460938 260.632812 219.570312 259.429688 C 219.601562 259.078125 219.519531 258.304688 218.066406 258.691406 " fill-opacity="1" fill-rule="nonzero"></path>
  <path fill="#d9d9d9" d="M 161.402344 37.128906 C 162.21875 37.59375 163.917969 37.125 163.351562 35.355469 C 163.167969 34.789062 162.609375 33.507812 161.300781 33.859375 C 159.53125 34.429688 160.621094 36.683594 161.402344 37.128906 " fill-opacity="1" fill-rule="nonzero"></path>
  <path fill="#d9d9d9" d="M 203.871094 275.824219 C 203.71875 275.75 203.277344 275.59375 202.503906 275.753906 C 202.378906 275.777344 202.117188 275.835938 202.074219 275.921875 C 201.953125 276.144531 203.140625 276.277344 203.808594 276.046875 C 204.019531 275.972656 204.039062 275.902344 203.871094 275.824219 " fill-opacity="1" fill-rule="nonzero"></path>
  <path fill="#d9d9d9" d="M 149.925781 28.714844 C 150.511719 29.210938 152.121094 29.15625 151.894531 27.21875 C 151.890625 27.195312 151.574219 25.300781 150.152344 25.640625 C 148.757812 26.0625 149.253906 28.144531 149.925781 28.714844 " fill-opacity="1" fill-rule="nonzero"></path>
  <path fill="#d9d9d9" d="M 137.371094 11.632812 C 137.445312 11.1875 137.535156 10.152344 136.84375 10.25 C 135.949219 10.441406 135.742188 12.265625 136.085938 12.667969 C 136.40625 13.046875 137.1875 12.808594 137.371094 11.632812 " fill-opacity="1" fill-rule="nonzero"></path>
  <path fill="#d9d9d9" d="M 141.492188 20.585938 C 141.667969 20.734375 142.136719 21.027344 142.683594 20.53125 C 142.917969 20.320312 143.179688 19.902344 143.117188 19.113281 C 143.085938 18.730469 142.914062 17.5 141.949219 17.707031 C 140.695312 18.0625 140.941406 20.121094 141.492188 20.585938 " fill-opacity="1" fill-rule="nonzero"></path>
  <path fill="#d9d9d9" d="M 231.402344 117.351562 C 232.40625 117.949219 235.113281 117.484375 234.515625 114.710938 C 234.507812 114.6875 233.890625 112.324219 231.6875 113 C 229.175781 113.894531 230.371094 116.742188 231.402344 117.351562 " fill-opacity="1" fill-rule="nonzero"></path>
  <path fill="#d9d9d9" d="M 175.386719 45.425781 C 176.351562 45.789062 176.605469 45.503906 176.929688 45.144531 C 177.09375 44.96875 177.425781 44.457031 177.058594 43.574219 C 176.65625 42.605469 175.773438 42.101562 174.910156 42.347656 C 174.871094 42.363281 174.816406 42.378906 174.773438 42.398438 C 173.632812 42.882812 174.046875 44.921875 175.386719 45.425781 " fill-opacity="1" fill-rule="nonzero"></path>
  <path fill="#d9d9d9" d="M 227.46875 248.808594 C 226.183594 249.199219 225.785156 250.257812 226.148438 250.785156 C 226.488281 251.285156 227.503906 251.03125 227.515625 251.027344 C 227.523438 251.023438 228.597656 250.457031 228.746094 249.730469 C 228.820312 249.386719 228.742188 248.476562 227.46875 248.808594 " fill-opacity="1" fill-rule="nonzero"></path>
  <path fill="#d9d9d9" d="M 238.128906 237.183594 C 236.820312 237.644531 236.910156 238.757812 237.085938 238.996094 C 237.453125 239.480469 238.925781 239.027344 239.148438 237.984375 C 239.191406 237.78125 239.347656 236.792969 238.128906 237.183594 " fill-opacity="1" fill-rule="nonzero"></path>
  <g clip-path="url(#039f8df183)">
    <path fill="#d9d9d9" d="M 249.957031 199.785156 C 248.632812 200.257812 248.355469 201.84375 248.949219 202.496094 C 249.605469 203.222656 251.484375 202.292969 251.542969 200.910156 C 251.570312 200.289062 251.398438 199.320312 249.957031 199.785156 " fill-opacity="1" fill-rule="nonzero"></path>
  </g>
  <path fill="#d9d9d9" d="M 220.820312 88.351562 C 221.769531 88.828125 223.492188 88.074219 222.867188 86.46875 C 222.625 85.847656 222.035156 84.859375 220.773438 85.25 C 218.921875 85.910156 220.007812 87.945312 220.820312 88.351562 " fill-opacity="1" fill-rule="nonzero"></path>
  <path fill="#d9d9d9" d="M 191.207031 53.460938 C 191.277344 53.488281 191.882812 53.710938 192.292969 53.320312 C 192.625 53 192.703125 52.621094 192.527344 52.195312 C 192.523438 52.179688 191.984375 50.898438 190.878906 51.195312 C 190.828125 51.214844 190.773438 51.234375 190.722656 51.261719 C 189.6875 51.746094 190.433594 53.15625 191.207031 53.460938 " fill-opacity="1" fill-rule="nonzero"></path>
</svg>
